<svg width="37" height="42" viewBox="0 0 37 42" fill="none" xmlns="http://www.w3.org/2000/svg">
<path d="M0 22.1501V30.4535C0 30.8217 0.195074 31.162 0.512025 31.3468L17.6287 41.3259C17.9029 41.4857 18.2463 41.287 18.2463 40.9686V32.3436C18.2463 31.8619 17.9895 31.4171 17.5733 31.178L0.922945 21.6121C0.511766 21.3759 0 21.6742 0 22.1501Z" fill="white"/>
<path d="M9.30304 11.3616V19.7215C9.30304 20.0522 9.47667 20.3573 9.76113 20.5238C14.04 23.0288 21.9175 27.643 22.5123 28.0016C23.1291 28.3114 23.3861 28.8278 23.3861 29.1893V37.8501C23.3861 38.1729 23.7381 38.371 24.012 38.2024L27.056 36.3292C27.3305 36.1603 27.4979 35.8601 27.4979 35.5366V21.7189C27.4979 21.165 27.2036 20.6533 26.7259 20.3767L10.2278 10.8247C9.81658 10.5866 9.30304 10.8848 9.30304 11.3616Z" fill="white"/>
<path d="M18.2463 0.620595V8.98048C18.2463 9.31125 18.4199 9.61632 18.7044 9.78285C22.9832 12.2878 30.8607 16.902 31.4556 17.2606C32.0723 17.5704 32.3293 18.0868 32.3293 18.4483V32.5829C32.3293 32.9057 32.6813 33.1038 32.9553 32.9352L35.9992 31.062C36.2738 30.8931 36.4412 30.5929 36.4412 30.2694V10.978C36.4412 10.4241 36.1468 9.91228 35.6691 9.63572L19.171 0.0836924C18.7598 -0.154373 18.2463 0.143794 18.2463 0.620595Z" fill="white"/>
</svg>
