<svg width="61" height="62" viewBox="0 0 61 62" fill="none" xmlns="http://www.w3.org/2000/svg">
<path fill-rule="evenodd" clip-rule="evenodd" d="M59.0846 2.90329C54.8939 31.5846 29.1589 45.516 2.29266 48.6843C2.0709 48.7108 1.86872 48.8242 1.73045 48.9996C1.59218 49.175 1.52909 49.3981 1.55503 49.6199C1.58147 49.8416 1.69478 50.0438 1.8701 50.1821C2.04542 50.3204 2.26842 50.3835 2.4902 50.3575C30.1091 47.1025 56.4438 32.6309 60.7513 3.14542C60.7834 2.9244 60.7264 2.69968 60.5928 2.52069C60.4592 2.3417 60.26 2.22311 60.039 2.191C59.818 2.15889 59.5933 2.2159 59.4143 2.34948C59.2353 2.48306 59.1167 2.68228 59.0846 2.90329Z" fill="#CCCCCC"/>
<path fill-rule="evenodd" clip-rule="evenodd" d="M2.89562 49.4618C4.09028 48.5881 5.60214 47.5084 5.77013 47.3807C10.3217 43.9239 14.0933 39.9462 17.4141 35.2793C17.5434 35.0971 17.5952 34.8711 17.5582 34.6507C17.5212 34.4304 17.3983 34.2337 17.2165 34.1038C17.0344 33.9742 16.8082 33.9223 16.5877 33.9593C16.3672 33.9963 16.1705 34.1194 16.0406 34.3014C12.8217 38.8276 9.16548 42.6865 4.74955 46.0392C4.49241 46.2349 1.09283 48.6603 0.442011 49.2027C0.17455 49.4238 0.0914961 49.6321 0.0764807 49.6832C0.0400931 49.7855 0.0245439 49.8941 0.0307491 50.0024C0.0369542 50.1108 0.0647883 50.2169 0.112611 50.3144C0.195665 50.4866 0.401658 50.7376 0.801442 50.8652C1.22047 50.9971 2.15142 51.0567 2.38557 51.0905C5.9123 51.6137 9.89466 51.89 13.5195 52.8932C16.9763 53.85 20.1122 55.4703 22.1233 58.7164C22.2412 58.9063 22.4298 59.0416 22.6474 59.0927C22.8651 59.1437 23.0941 59.1063 23.2842 58.9886C23.474 58.8705 23.6092 58.682 23.6603 58.4644C23.7113 58.2468 23.6739 58.0178 23.5563 57.8277C21.3068 54.1986 17.8331 52.3386 13.9699 51.2692C10.3662 50.2721 6.42001 49.9699 2.89562 49.4618Z" fill="#CCCCCC"/>
</svg>
